<?xml version="1.0" encoding="UTF-8" standalone="no"?>
<!DOCTYPE svg PUBLIC "-//W3C//DTD SVG 1.1//EN"
 "http://www.w3.org/Graphics/SVG/1.1/DTD/svg11.dtd">
<!-- Generated by graphviz version 2.43.0 (0)
 -->
<!-- Title: Program Pages: 1 -->
<svg width="281pt" height="4859pt"
 viewBox="0.00 0.00 280.75 4859.00" xmlns="http://www.w3.org/2000/svg" xmlns:xlink="http://www.w3.org/1999/xlink">
<g id="graph0" class="graph" transform="scale(1 1) rotate(0) translate(4 4855)">
<title>Program</title>
<polygon fill="white" stroke="transparent" points="-4,4 -4,-4855 276.75,-4855 276.75,4 -4,4"/>
<!-- Node_start -->
<g id="node1" class="node">
<title>Node_start</title>
<ellipse fill="none" stroke="black" cx="237" cy="-4833" rx="34.39" ry="18"/>
<text text-anchor="middle" x="237" y="-4829.3" font-family="Times,serif" font-size="14.00">Start</text>
</g>
<!-- Node_0 -->
<g id="node2" class="node">
<title>Node_0</title>
<ellipse fill="none" stroke="black" cx="237" cy="-4760" rx="27" ry="18"/>
<text text-anchor="middle" x="237" y="-4756.3" font-family="Times,serif" font-size="14.00">1</text>
</g>
<!-- Node_start&#45;&gt;Node_0 -->
<g id="edge1" class="edge">
<title>Node_start&#45;&gt;Node_0</title>
<path fill="none" stroke="black" d="M237,-4814.81C237,-4806.79 237,-4797.05 237,-4788.07"/>
<polygon fill="black" stroke="black" points="240.5,-4788.03 237,-4778.03 233.5,-4788.03 240.5,-4788.03"/>
</g>
<!-- Node_1 -->
<g id="node3" class="node">
<title>Node_1</title>
<ellipse fill="none" stroke="black" cx="237" cy="-4687" rx="36" ry="18"/>
<text text-anchor="middle" x="237" y="-4683.3" font-family="Times,serif" font-size="14.00">while</text>
</g>
<!-- Node_0&#45;&gt;Node_1 -->
<g id="edge2" class="edge">
<title>Node_0&#45;&gt;Node_1</title>
<path fill="none" stroke="black" d="M237,-4741.81C237,-4733.79 237,-4724.05 237,-4715.07"/>
<polygon fill="black" stroke="black" points="240.5,-4715.03 237,-4705.03 233.5,-4715.03 240.5,-4715.03"/>
</g>
<!-- Node_2 -->
<g id="node4" class="node">
<title>Node_2</title>
<ellipse fill="none" stroke="black" cx="208" cy="-4614" rx="28.7" ry="18"/>
<text text-anchor="middle" x="208" y="-4610.3" font-family="Times,serif" font-size="14.00">dup</text>
</g>
<!-- Node_1&#45;&gt;Node_2 -->
<g id="edge3" class="edge">
<title>Node_1&#45;&gt;Node_2</title>
<path fill="none" stroke="black" d="M230.13,-4669.17C226.7,-4660.77 222.47,-4650.42 218.63,-4641.03"/>
<polygon fill="black" stroke="black" points="221.84,-4639.64 214.82,-4631.71 215.36,-4642.29 221.84,-4639.64"/>
</g>
<!-- Node_3 -->
<g id="node5" class="node">
<title>Node_3</title>
<ellipse fill="none" stroke="black" cx="205" cy="-4541" rx="28.7" ry="18"/>
<text text-anchor="middle" x="205" y="-4537.3" font-family="Times,serif" font-size="14.00">100</text>
</g>
<!-- Node_2&#45;&gt;Node_3 -->
<g id="edge4" class="edge">
<title>Node_2&#45;&gt;Node_3</title>
<path fill="none" stroke="black" d="M207.27,-4595.81C206.93,-4587.79 206.52,-4578.05 206.14,-4569.07"/>
<polygon fill="black" stroke="black" points="209.64,-4568.87 205.72,-4559.03 202.64,-4569.17 209.64,-4568.87"/>
</g>
<!-- Node_4 -->
<g id="node6" class="node">
<title>Node_4</title>
<ellipse fill="none" stroke="black" cx="190" cy="-4468" rx="27" ry="18"/>
<text text-anchor="middle" x="190" y="-4464.3" font-family="Times,serif" font-size="14.00">&lt;=</text>
</g>
<!-- Node_3&#45;&gt;Node_4 -->
<g id="edge5" class="edge">
<title>Node_3&#45;&gt;Node_4</title>
<path fill="none" stroke="black" d="M201.37,-4522.81C199.67,-4514.79 197.62,-4505.05 195.72,-4496.07"/>
<polygon fill="black" stroke="black" points="199.09,-4495.09 193.6,-4486.03 192.24,-4496.54 199.09,-4495.09"/>
</g>
<!-- Node_5 -->
<g id="node7" class="node">
<title>Node_5</title>
<ellipse fill="none" stroke="black" cx="147" cy="-4395" rx="27" ry="18"/>
<text text-anchor="middle" x="147" y="-4391.3" font-family="Times,serif" font-size="14.00">do</text>
</g>
<!-- Node_4&#45;&gt;Node_5 -->
<g id="edge6" class="edge">
<title>Node_4&#45;&gt;Node_5</title>
<path fill="none" stroke="black" d="M180.24,-4450.89C174.85,-4441.99 168.05,-4430.75 162,-4420.77"/>
<polygon fill="black" stroke="black" points="164.89,-4418.79 156.72,-4412.05 158.91,-4422.41 164.89,-4418.79"/>
</g>
<!-- Node_6 -->
<g id="node8" class="node">
<title>Node_6</title>
<ellipse fill="none" stroke="black" cx="147" cy="-4308" rx="28.7" ry="18"/>
<text text-anchor="middle" x="147" y="-4304.3" font-family="Times,serif" font-size="14.00">dup</text>
</g>
<!-- Node_5&#45;&gt;Node_6 -->
<g id="edge7" class="edge">
<title>Node_5&#45;&gt;Node_6</title>
<path fill="none" stroke="black" d="M147,-4376.8C147,-4365.16 147,-4349.55 147,-4336.24"/>
<polygon fill="black" stroke="black" points="150.5,-4336.18 147,-4326.18 143.5,-4336.18 150.5,-4336.18"/>
<text text-anchor="middle" x="162.5" y="-4347.8" font-family="Times,serif" font-size="14.00">true</text>
</g>
<!-- Node_64 -->
<g id="node9" class="node">
<title>Node_64</title>
<ellipse fill="none" stroke="black" cx="101" cy="-164" rx="27.9" ry="18"/>
<text text-anchor="middle" x="101" y="-160.3" font-family="Times,serif" font-size="14.00">end</text>
</g>
<!-- Node_5&#45;&gt;Node_64 -->
<g id="edge8" class="edge">
<title>Node_5&#45;&gt;Node_64</title>
<path fill="none" stroke="black" stroke-dasharray="5,2" d="M120.72,-4390.82C78.44,-4384.07 0,-4364.13 0,-4309 0,-4309 0,-4309 0,-236 0,-203.12 36.27,-184.15 65.34,-174.23"/>
<polygon fill="black" stroke="black" points="66.78,-177.44 75.25,-171.09 64.66,-170.77 66.78,-177.44"/>
<text text-anchor="middle" x="17" y="-2261.8" font-family="Times,serif" font-size="14.00">false</text>
</g>
<!-- Node_7 -->
<g id="node10" class="node">
<title>Node_7</title>
<ellipse fill="none" stroke="black" cx="147" cy="-4235" rx="27" ry="18"/>
<text text-anchor="middle" x="147" y="-4231.3" font-family="Times,serif" font-size="14.00">3</text>
</g>
<!-- Node_6&#45;&gt;Node_7 -->
<g id="edge9" class="edge">
<title>Node_6&#45;&gt;Node_7</title>
<path fill="none" stroke="black" d="M147,-4289.81C147,-4281.79 147,-4272.05 147,-4263.07"/>
<polygon fill="black" stroke="black" points="150.5,-4263.03 147,-4253.03 143.5,-4263.03 150.5,-4263.03"/>
</g>
<!-- Node_64&#45;&gt;Node_1 -->
<g id="edge70" class="edge">
<title>Node_64&#45;&gt;Node_1</title>
<path fill="none" stroke="black" d="M128.99,-164.93C176.07,-166.45 266,-177.06 266,-236 266,-4615 266,-4615 266,-4615 266,-4631.07 259.55,-4647.77 252.74,-4660.93"/>
<polygon fill="black" stroke="black" points="249.59,-4659.39 247.8,-4669.83 255.71,-4662.79 249.59,-4659.39"/>
</g>
<!-- Node_65 -->
<g id="node67" class="node">
<title>Node_65</title>
<ellipse fill="none" stroke="black" cx="101" cy="-91" rx="32.49" ry="18"/>
<text text-anchor="middle" x="101" y="-87.3" font-family="Times,serif" font-size="14.00">drop</text>
</g>
<!-- Node_64&#45;&gt;Node_65 -->
<g id="edge71" class="edge">
<title>Node_64&#45;&gt;Node_65</title>
<path fill="none" stroke="black" d="M101,-145.81C101,-137.79 101,-128.05 101,-119.07"/>
<polygon fill="black" stroke="black" points="104.5,-119.03 101,-109.03 97.5,-119.03 104.5,-119.03"/>
</g>
<!-- Node_8 -->
<g id="node11" class="node">
<title>Node_8</title>
<ellipse fill="none" stroke="black" cx="147" cy="-4162" rx="27" ry="18"/>
<text text-anchor="middle" x="147" y="-4158.3" font-family="Times,serif" font-size="14.00">/%</text>
</g>
<!-- Node_7&#45;&gt;Node_8 -->
<g id="edge10" class="edge">
<title>Node_7&#45;&gt;Node_8</title>
<path fill="none" stroke="black" d="M147,-4216.81C147,-4208.79 147,-4199.05 147,-4190.07"/>
<polygon fill="black" stroke="black" points="150.5,-4190.03 147,-4180.03 143.5,-4190.03 150.5,-4190.03"/>
</g>
<!-- Node_9 -->
<g id="node12" class="node">
<title>Node_9</title>
<ellipse fill="none" stroke="black" cx="147" cy="-4089" rx="34.39" ry="18"/>
<text text-anchor="middle" x="147" y="-4085.3" font-family="Times,serif" font-size="14.00">swap</text>
</g>
<!-- Node_8&#45;&gt;Node_9 -->
<g id="edge11" class="edge">
<title>Node_8&#45;&gt;Node_9</title>
<path fill="none" stroke="black" d="M147,-4143.81C147,-4135.79 147,-4126.05 147,-4117.07"/>
<polygon fill="black" stroke="black" points="150.5,-4117.03 147,-4107.03 143.5,-4117.03 150.5,-4117.03"/>
</g>
<!-- Node_10 -->
<g id="node13" class="node">
<title>Node_10</title>
<ellipse fill="none" stroke="black" cx="147" cy="-4016" rx="32.49" ry="18"/>
<text text-anchor="middle" x="147" y="-4012.3" font-family="Times,serif" font-size="14.00">drop</text>
</g>
<!-- Node_9&#45;&gt;Node_10 -->
<g id="edge12" class="edge">
<title>Node_9&#45;&gt;Node_10</title>
<path fill="none" stroke="black" d="M147,-4070.81C147,-4062.79 147,-4053.05 147,-4044.07"/>
<polygon fill="black" stroke="black" points="150.5,-4044.03 147,-4034.03 143.5,-4044.03 150.5,-4044.03"/>
</g>
<!-- Node_11 -->
<g id="node14" class="node">
<title>Node_11</title>
<ellipse fill="none" stroke="black" cx="147" cy="-3943" rx="27" ry="18"/>
<text text-anchor="middle" x="147" y="-3939.3" font-family="Times,serif" font-size="14.00">0</text>
</g>
<!-- Node_10&#45;&gt;Node_11 -->
<g id="edge13" class="edge">
<title>Node_10&#45;&gt;Node_11</title>
<path fill="none" stroke="black" d="M147,-3997.81C147,-3989.79 147,-3980.05 147,-3971.07"/>
<polygon fill="black" stroke="black" points="150.5,-3971.03 147,-3961.03 143.5,-3971.03 150.5,-3971.03"/>
</g>
<!-- Node_12 -->
<g id="node15" class="node">
<title>Node_12</title>
<ellipse fill="none" stroke="black" cx="147" cy="-3870" rx="27" ry="18"/>
<text text-anchor="middle" x="147" y="-3866.3" font-family="Times,serif" font-size="14.00">=</text>
</g>
<!-- Node_11&#45;&gt;Node_12 -->
<g id="edge14" class="edge">
<title>Node_11&#45;&gt;Node_12</title>
<path fill="none" stroke="black" d="M147,-3924.81C147,-3916.79 147,-3907.05 147,-3898.07"/>
<polygon fill="black" stroke="black" points="150.5,-3898.03 147,-3888.03 143.5,-3898.03 150.5,-3898.03"/>
</g>
<!-- Node_13 -->
<g id="node16" class="node">
<title>Node_13</title>
<ellipse fill="none" stroke="black" cx="147" cy="-3797" rx="27" ry="18"/>
<text text-anchor="middle" x="147" y="-3793.3" font-family="Times,serif" font-size="14.00">if</text>
</g>
<!-- Node_12&#45;&gt;Node_13 -->
<g id="edge15" class="edge">
<title>Node_12&#45;&gt;Node_13</title>
<path fill="none" stroke="black" d="M147,-3851.81C147,-3843.79 147,-3834.05 147,-3825.07"/>
<polygon fill="black" stroke="black" points="150.5,-3825.03 147,-3815.03 143.5,-3825.03 150.5,-3825.03"/>
</g>
<!-- Node_14 -->
<g id="node17" class="node">
<title>Node_14</title>
<ellipse fill="none" stroke="black" cx="117" cy="-3710" rx="27" ry="18"/>
<text text-anchor="middle" x="117" y="-3706.3" font-family="Times,serif" font-size="14.00">fizz</text>
</g>
<!-- Node_13&#45;&gt;Node_14 -->
<g id="edge16" class="edge">
<title>Node_13&#45;&gt;Node_14</title>
<path fill="none" stroke="black" d="M137.74,-3779.99C134.64,-3774.15 131.38,-3767.41 129,-3761 126.27,-3753.63 124,-3745.42 122.19,-3737.82"/>
<polygon fill="black" stroke="black" points="125.59,-3736.98 120.02,-3727.97 118.75,-3738.48 125.59,-3736.98"/>
<text text-anchor="middle" x="144.5" y="-3749.8" font-family="Times,serif" font-size="14.00">true</text>
</g>
<!-- Node_19 -->
<g id="node18" class="node">
<title>Node_19</title>
<ellipse fill="none" stroke="black" cx="154" cy="-3345" rx="27.9" ry="18"/>
<text text-anchor="middle" x="154" y="-3341.3" font-family="Times,serif" font-size="14.00">end</text>
</g>
<!-- Node_13&#45;&gt;Node_19 -->
<g id="edge17" class="edge">
<title>Node_13&#45;&gt;Node_19</title>
<path fill="none" stroke="black" stroke-dasharray="5,2" d="M155.39,-3779.87C163.32,-3763.12 174,-3735.93 174,-3711 174,-3711 174,-3711 174,-3417 174,-3401.69 169.64,-3385.2 164.99,-3371.97"/>
<polygon fill="black" stroke="black" points="168.25,-3370.68 161.45,-3362.56 161.7,-3373.15 168.25,-3370.68"/>
<text text-anchor="middle" x="191" y="-3560.3" font-family="Times,serif" font-size="14.00">false</text>
</g>
<!-- Node_15 -->
<g id="node19" class="node">
<title>Node_15</title>
<ellipse fill="none" stroke="black" cx="109" cy="-3637" rx="27" ry="18"/>
<text text-anchor="middle" x="109" y="-3633.3" font-family="Times,serif" font-size="14.00">1</text>
</g>
<!-- Node_14&#45;&gt;Node_15 -->
<g id="edge18" class="edge">
<title>Node_14&#45;&gt;Node_15</title>
<path fill="none" stroke="black" d="M115.06,-3691.81C114.16,-3683.79 113.06,-3674.05 112.05,-3665.07"/>
<polygon fill="black" stroke="black" points="115.52,-3664.57 110.92,-3655.03 108.56,-3665.36 115.52,-3664.57"/>
</g>
<!-- Node_20 -->
<g id="node23" class="node">
<title>Node_20</title>
<ellipse fill="none" stroke="black" cx="154" cy="-3272" rx="28.7" ry="18"/>
<text text-anchor="middle" x="154" y="-3268.3" font-family="Times,serif" font-size="14.00">dup</text>
</g>
<!-- Node_19&#45;&gt;Node_20 -->
<g id="edge23" class="edge">
<title>Node_19&#45;&gt;Node_20</title>
<path fill="none" stroke="black" d="M154,-3326.81C154,-3318.79 154,-3309.05 154,-3300.07"/>
<polygon fill="black" stroke="black" points="157.5,-3300.03 154,-3290.03 150.5,-3300.03 157.5,-3300.03"/>
</g>
<!-- Node_16 -->
<g id="node20" class="node">
<title>Node_16</title>
<ellipse fill="none" stroke="black" cx="105" cy="-3564" rx="27" ry="18"/>
<text text-anchor="middle" x="105" y="-3560.3" font-family="Times,serif" font-size="14.00">1</text>
</g>
<!-- Node_15&#45;&gt;Node_16 -->
<g id="edge19" class="edge">
<title>Node_15&#45;&gt;Node_16</title>
<path fill="none" stroke="black" d="M108.03,-3618.81C107.58,-3610.79 107.03,-3601.05 106.53,-3592.07"/>
<polygon fill="black" stroke="black" points="110.02,-3591.82 105.96,-3582.03 103.03,-3592.21 110.02,-3591.82"/>
</g>
<!-- Node_17 -->
<g id="node21" class="node">
<title>Node_17</title>
<ellipse fill="none" stroke="black" cx="98" cy="-3491" rx="48.19" ry="18"/>
<text text-anchor="middle" x="98" y="-3487.3" font-family="Times,serif" font-size="14.00">syscall3</text>
</g>
<!-- Node_16&#45;&gt;Node_17 -->
<g id="edge20" class="edge">
<title>Node_16&#45;&gt;Node_17</title>
<path fill="none" stroke="black" d="M103.31,-3545.81C102.51,-3537.79 101.55,-3528.05 100.67,-3519.07"/>
<polygon fill="black" stroke="black" points="104.14,-3518.64 99.68,-3509.03 97.18,-3519.32 104.14,-3518.64"/>
</g>
<!-- Node_18 -->
<g id="node22" class="node">
<title>Node_18</title>
<ellipse fill="none" stroke="black" cx="110" cy="-3418" rx="32.49" ry="18"/>
<text text-anchor="middle" x="110" y="-3414.3" font-family="Times,serif" font-size="14.00">drop</text>
</g>
<!-- Node_17&#45;&gt;Node_18 -->
<g id="edge21" class="edge">
<title>Node_17&#45;&gt;Node_18</title>
<path fill="none" stroke="black" d="M100.9,-3472.81C102.26,-3464.79 103.91,-3455.05 105.42,-3446.07"/>
<polygon fill="black" stroke="black" points="108.91,-3446.47 107.12,-3436.03 102,-3445.31 108.91,-3446.47"/>
</g>
<!-- Node_18&#45;&gt;Node_19 -->
<g id="edge22" class="edge">
<title>Node_18&#45;&gt;Node_19</title>
<path fill="none" stroke="black" d="M120.21,-3400.53C125.73,-3391.63 132.65,-3380.45 138.79,-3370.54"/>
<polygon fill="black" stroke="black" points="141.86,-3372.23 144.15,-3361.89 135.91,-3368.55 141.86,-3372.23"/>
</g>
<!-- Node_21 -->
<g id="node24" class="node">
<title>Node_21</title>
<ellipse fill="none" stroke="black" cx="154" cy="-3199" rx="27" ry="18"/>
<text text-anchor="middle" x="154" y="-3195.3" font-family="Times,serif" font-size="14.00">5</text>
</g>
<!-- Node_20&#45;&gt;Node_21 -->
<g id="edge24" class="edge">
<title>Node_20&#45;&gt;Node_21</title>
<path fill="none" stroke="black" d="M154,-3253.81C154,-3245.79 154,-3236.05 154,-3227.07"/>
<polygon fill="black" stroke="black" points="157.5,-3227.03 154,-3217.03 150.5,-3227.03 157.5,-3227.03"/>
</g>
<!-- Node_22 -->
<g id="node25" class="node">
<title>Node_22</title>
<ellipse fill="none" stroke="black" cx="154" cy="-3126" rx="27" ry="18"/>
<text text-anchor="middle" x="154" y="-3122.3" font-family="Times,serif" font-size="14.00">/%</text>
</g>
<!-- Node_21&#45;&gt;Node_22 -->
<g id="edge25" class="edge">
<title>Node_21&#45;&gt;Node_22</title>
<path fill="none" stroke="black" d="M154,-3180.81C154,-3172.79 154,-3163.05 154,-3154.07"/>
<polygon fill="black" stroke="black" points="157.5,-3154.03 154,-3144.03 150.5,-3154.03 157.5,-3154.03"/>
</g>
<!-- Node_23 -->
<g id="node26" class="node">
<title>Node_23</title>
<ellipse fill="none" stroke="black" cx="154" cy="-3053" rx="34.39" ry="18"/>
<text text-anchor="middle" x="154" y="-3049.3" font-family="Times,serif" font-size="14.00">swap</text>
</g>
<!-- Node_22&#45;&gt;Node_23 -->
<g id="edge26" class="edge">
<title>Node_22&#45;&gt;Node_23</title>
<path fill="none" stroke="black" d="M154,-3107.81C154,-3099.79 154,-3090.05 154,-3081.07"/>
<polygon fill="black" stroke="black" points="157.5,-3081.03 154,-3071.03 150.5,-3081.03 157.5,-3081.03"/>
</g>
<!-- Node_24 -->
<g id="node27" class="node">
<title>Node_24</title>
<ellipse fill="none" stroke="black" cx="154" cy="-2980" rx="32.49" ry="18"/>
<text text-anchor="middle" x="154" y="-2976.3" font-family="Times,serif" font-size="14.00">drop</text>
</g>
<!-- Node_23&#45;&gt;Node_24 -->
<g id="edge27" class="edge">
<title>Node_23&#45;&gt;Node_24</title>
<path fill="none" stroke="black" d="M154,-3034.81C154,-3026.79 154,-3017.05 154,-3008.07"/>
<polygon fill="black" stroke="black" points="157.5,-3008.03 154,-2998.03 150.5,-3008.03 157.5,-3008.03"/>
</g>
<!-- Node_25 -->
<g id="node28" class="node">
<title>Node_25</title>
<ellipse fill="none" stroke="black" cx="154" cy="-2907" rx="27" ry="18"/>
<text text-anchor="middle" x="154" y="-2903.3" font-family="Times,serif" font-size="14.00">0</text>
</g>
<!-- Node_24&#45;&gt;Node_25 -->
<g id="edge28" class="edge">
<title>Node_24&#45;&gt;Node_25</title>
<path fill="none" stroke="black" d="M154,-2961.81C154,-2953.79 154,-2944.05 154,-2935.07"/>
<polygon fill="black" stroke="black" points="157.5,-2935.03 154,-2925.03 150.5,-2935.03 157.5,-2935.03"/>
</g>
<!-- Node_26 -->
<g id="node29" class="node">
<title>Node_26</title>
<ellipse fill="none" stroke="black" cx="154" cy="-2834" rx="27" ry="18"/>
<text text-anchor="middle" x="154" y="-2830.3" font-family="Times,serif" font-size="14.00">=</text>
</g>
<!-- Node_25&#45;&gt;Node_26 -->
<g id="edge29" class="edge">
<title>Node_25&#45;&gt;Node_26</title>
<path fill="none" stroke="black" d="M154,-2888.81C154,-2880.79 154,-2871.05 154,-2862.07"/>
<polygon fill="black" stroke="black" points="157.5,-2862.03 154,-2852.03 150.5,-2862.03 157.5,-2862.03"/>
</g>
<!-- Node_27 -->
<g id="node30" class="node">
<title>Node_27</title>
<ellipse fill="none" stroke="black" cx="154" cy="-2761" rx="27" ry="18"/>
<text text-anchor="middle" x="154" y="-2757.3" font-family="Times,serif" font-size="14.00">if</text>
</g>
<!-- Node_26&#45;&gt;Node_27 -->
<g id="edge30" class="edge">
<title>Node_26&#45;&gt;Node_27</title>
<path fill="none" stroke="black" d="M154,-2815.81C154,-2807.79 154,-2798.05 154,-2789.07"/>
<polygon fill="black" stroke="black" points="157.5,-2789.03 154,-2779.03 150.5,-2789.03 157.5,-2789.03"/>
</g>
<!-- Node_28 -->
<g id="node31" class="node">
<title>Node_28</title>
<ellipse fill="none" stroke="black" cx="94" cy="-2674" rx="32.49" ry="18"/>
<text text-anchor="middle" x="94" y="-2670.3" font-family="Times,serif" font-size="14.00">buzz</text>
</g>
<!-- Node_27&#45;&gt;Node_28 -->
<g id="edge31" class="edge">
<title>Node_27&#45;&gt;Node_28</title>
<path fill="none" stroke="black" d="M137.15,-2746.55C130.3,-2740.48 122.67,-2732.9 117,-2725 111.85,-2717.82 107.43,-2709.31 103.87,-2701.36"/>
<polygon fill="black" stroke="black" points="107.07,-2699.94 99.97,-2692.08 100.61,-2702.65 107.07,-2699.94"/>
<text text-anchor="middle" x="132.5" y="-2713.8" font-family="Times,serif" font-size="14.00">true</text>
</g>
<!-- Node_33 -->
<g id="node32" class="node">
<title>Node_33</title>
<ellipse fill="none" stroke="black" cx="162" cy="-2309" rx="27.9" ry="18"/>
<text text-anchor="middle" x="162" y="-2305.3" font-family="Times,serif" font-size="14.00">end</text>
</g>
<!-- Node_27&#45;&gt;Node_33 -->
<g id="edge32" class="edge">
<title>Node_27&#45;&gt;Node_33</title>
<path fill="none" stroke="black" stroke-dasharray="5,2" d="M156.58,-2742.79C158.91,-2725.65 162,-2698.57 162,-2675 162,-2675 162,-2675 162,-2381 162,-2366.65 162,-2350.67 162,-2337.51"/>
<polygon fill="black" stroke="black" points="165.5,-2337.22 162,-2327.22 158.5,-2337.22 165.5,-2337.22"/>
<text text-anchor="middle" x="179" y="-2524.3" font-family="Times,serif" font-size="14.00">false</text>
</g>
<!-- Node_29 -->
<g id="node33" class="node">
<title>Node_29</title>
<ellipse fill="none" stroke="black" cx="92" cy="-2601" rx="27" ry="18"/>
<text text-anchor="middle" x="92" y="-2597.3" font-family="Times,serif" font-size="14.00">1</text>
</g>
<!-- Node_28&#45;&gt;Node_29 -->
<g id="edge33" class="edge">
<title>Node_28&#45;&gt;Node_29</title>
<path fill="none" stroke="black" d="M93.52,-2655.81C93.29,-2647.79 93.02,-2638.05 92.76,-2629.07"/>
<polygon fill="black" stroke="black" points="96.26,-2628.93 92.48,-2619.03 89.26,-2629.12 96.26,-2628.93"/>
</g>
<!-- Node_34 -->
<g id="node37" class="node">
<title>Node_34</title>
<ellipse fill="none" stroke="black" cx="162" cy="-2222" rx="28.7" ry="18"/>
<text text-anchor="middle" x="162" y="-2218.3" font-family="Times,serif" font-size="14.00">dup</text>
</g>
<!-- Node_33&#45;&gt;Node_34 -->
<g id="edge38" class="edge">
<title>Node_33&#45;&gt;Node_34</title>
<path fill="none" stroke="black" d="M162,-2290.8C162,-2279.16 162,-2263.55 162,-2250.24"/>
<polygon fill="black" stroke="black" points="165.5,-2250.18 162,-2240.18 158.5,-2250.18 165.5,-2250.18"/>
</g>
<!-- Node_30 -->
<g id="node34" class="node">
<title>Node_30</title>
<ellipse fill="none" stroke="black" cx="88" cy="-2528" rx="27" ry="18"/>
<text text-anchor="middle" x="88" y="-2524.3" font-family="Times,serif" font-size="14.00">1</text>
</g>
<!-- Node_29&#45;&gt;Node_30 -->
<g id="edge34" class="edge">
<title>Node_29&#45;&gt;Node_30</title>
<path fill="none" stroke="black" d="M91.03,-2582.81C90.58,-2574.79 90.03,-2565.05 89.53,-2556.07"/>
<polygon fill="black" stroke="black" points="93.02,-2555.82 88.96,-2546.03 86.03,-2556.21 93.02,-2555.82"/>
</g>
<!-- Node_31 -->
<g id="node35" class="node">
<title>Node_31</title>
<ellipse fill="none" stroke="black" cx="86" cy="-2455" rx="48.19" ry="18"/>
<text text-anchor="middle" x="86" y="-2451.3" font-family="Times,serif" font-size="14.00">syscall3</text>
</g>
<!-- Node_30&#45;&gt;Node_31 -->
<g id="edge35" class="edge">
<title>Node_30&#45;&gt;Node_31</title>
<path fill="none" stroke="black" d="M87.52,-2509.81C87.29,-2501.79 87.02,-2492.05 86.76,-2483.07"/>
<polygon fill="black" stroke="black" points="90.26,-2482.93 86.48,-2473.03 83.26,-2483.12 90.26,-2482.93"/>
</g>
<!-- Node_32 -->
<g id="node36" class="node">
<title>Node_32</title>
<ellipse fill="none" stroke="black" cx="98" cy="-2382" rx="32.49" ry="18"/>
<text text-anchor="middle" x="98" y="-2378.3" font-family="Times,serif" font-size="14.00">drop</text>
</g>
<!-- Node_31&#45;&gt;Node_32 -->
<g id="edge36" class="edge">
<title>Node_31&#45;&gt;Node_32</title>
<path fill="none" stroke="black" d="M88.9,-2436.81C90.26,-2428.79 91.91,-2419.05 93.42,-2410.07"/>
<polygon fill="black" stroke="black" points="96.91,-2410.47 95.12,-2400.03 90,-2409.31 96.91,-2410.47"/>
</g>
<!-- Node_32&#45;&gt;Node_33 -->
<g id="edge37" class="edge">
<title>Node_32&#45;&gt;Node_33</title>
<path fill="none" stroke="black" d="M111.89,-2365.59C120.64,-2355.88 132.1,-2343.17 141.85,-2332.36"/>
<polygon fill="black" stroke="black" points="144.48,-2334.66 148.58,-2324.89 139.28,-2329.97 144.48,-2334.66"/>
</g>
<!-- Node_35 -->
<g id="node38" class="node">
<title>Node_35</title>
<ellipse fill="none" stroke="black" cx="162" cy="-2149" rx="27" ry="18"/>
<text text-anchor="middle" x="162" y="-2145.3" font-family="Times,serif" font-size="14.00">3</text>
</g>
<!-- Node_34&#45;&gt;Node_35 -->
<g id="edge39" class="edge">
<title>Node_34&#45;&gt;Node_35</title>
<path fill="none" stroke="black" d="M162,-2203.81C162,-2195.79 162,-2186.05 162,-2177.07"/>
<polygon fill="black" stroke="black" points="165.5,-2177.03 162,-2167.03 158.5,-2177.03 165.5,-2177.03"/>
</g>
<!-- Node_36 -->
<g id="node39" class="node">
<title>Node_36</title>
<ellipse fill="none" stroke="black" cx="162" cy="-2076" rx="27" ry="18"/>
<text text-anchor="middle" x="162" y="-2072.3" font-family="Times,serif" font-size="14.00">/%</text>
</g>
<!-- Node_35&#45;&gt;Node_36 -->
<g id="edge40" class="edge">
<title>Node_35&#45;&gt;Node_36</title>
<path fill="none" stroke="black" d="M162,-2130.81C162,-2122.79 162,-2113.05 162,-2104.07"/>
<polygon fill="black" stroke="black" points="165.5,-2104.03 162,-2094.03 158.5,-2104.03 165.5,-2104.03"/>
</g>
<!-- Node_37 -->
<g id="node40" class="node">
<title>Node_37</title>
<ellipse fill="none" stroke="black" cx="162" cy="-2003" rx="34.39" ry="18"/>
<text text-anchor="middle" x="162" y="-1999.3" font-family="Times,serif" font-size="14.00">swap</text>
</g>
<!-- Node_36&#45;&gt;Node_37 -->
<g id="edge41" class="edge">
<title>Node_36&#45;&gt;Node_37</title>
<path fill="none" stroke="black" d="M162,-2057.81C162,-2049.79 162,-2040.05 162,-2031.07"/>
<polygon fill="black" stroke="black" points="165.5,-2031.03 162,-2021.03 158.5,-2031.03 165.5,-2031.03"/>
</g>
<!-- Node_38 -->
<g id="node41" class="node">
<title>Node_38</title>
<ellipse fill="none" stroke="black" cx="162" cy="-1930" rx="32.49" ry="18"/>
<text text-anchor="middle" x="162" y="-1926.3" font-family="Times,serif" font-size="14.00">drop</text>
</g>
<!-- Node_37&#45;&gt;Node_38 -->
<g id="edge42" class="edge">
<title>Node_37&#45;&gt;Node_38</title>
<path fill="none" stroke="black" d="M162,-1984.81C162,-1976.79 162,-1967.05 162,-1958.07"/>
<polygon fill="black" stroke="black" points="165.5,-1958.03 162,-1948.03 158.5,-1958.03 165.5,-1958.03"/>
</g>
<!-- Node_39 -->
<g id="node42" class="node">
<title>Node_39</title>
<ellipse fill="none" stroke="black" cx="162" cy="-1857" rx="27" ry="18"/>
<text text-anchor="middle" x="162" y="-1853.3" font-family="Times,serif" font-size="14.00">0</text>
</g>
<!-- Node_38&#45;&gt;Node_39 -->
<g id="edge43" class="edge">
<title>Node_38&#45;&gt;Node_39</title>
<path fill="none" stroke="black" d="M162,-1911.81C162,-1903.79 162,-1894.05 162,-1885.07"/>
<polygon fill="black" stroke="black" points="165.5,-1885.03 162,-1875.03 158.5,-1885.03 165.5,-1885.03"/>
</g>
<!-- Node_40 -->
<g id="node43" class="node">
<title>Node_40</title>
<ellipse fill="none" stroke="black" cx="162" cy="-1784" rx="27" ry="18"/>
<text text-anchor="middle" x="162" y="-1780.3" font-family="Times,serif" font-size="14.00">=</text>
</g>
<!-- Node_39&#45;&gt;Node_40 -->
<g id="edge44" class="edge">
<title>Node_39&#45;&gt;Node_40</title>
<path fill="none" stroke="black" d="M162,-1838.81C162,-1830.79 162,-1821.05 162,-1812.07"/>
<polygon fill="black" stroke="black" points="165.5,-1812.03 162,-1802.03 158.5,-1812.03 165.5,-1812.03"/>
</g>
<!-- Node_41 -->
<g id="node44" class="node">
<title>Node_41</title>
<ellipse fill="none" stroke="black" cx="162" cy="-1711" rx="34.39" ry="18"/>
<text text-anchor="middle" x="162" y="-1707.3" font-family="Times,serif" font-size="14.00">swap</text>
</g>
<!-- Node_40&#45;&gt;Node_41 -->
<g id="edge45" class="edge">
<title>Node_40&#45;&gt;Node_41</title>
<path fill="none" stroke="black" d="M162,-1765.81C162,-1757.79 162,-1748.05 162,-1739.07"/>
<polygon fill="black" stroke="black" points="165.5,-1739.03 162,-1729.03 158.5,-1739.03 165.5,-1739.03"/>
</g>
<!-- Node_42 -->
<g id="node45" class="node">
<title>Node_42</title>
<ellipse fill="none" stroke="black" cx="162" cy="-1638" rx="28.7" ry="18"/>
<text text-anchor="middle" x="162" y="-1634.3" font-family="Times,serif" font-size="14.00">dup</text>
</g>
<!-- Node_41&#45;&gt;Node_42 -->
<g id="edge46" class="edge">
<title>Node_41&#45;&gt;Node_42</title>
<path fill="none" stroke="black" d="M162,-1692.81C162,-1684.79 162,-1675.05 162,-1666.07"/>
<polygon fill="black" stroke="black" points="165.5,-1666.03 162,-1656.03 158.5,-1666.03 165.5,-1666.03"/>
</g>
<!-- Node_43 -->
<g id="node46" class="node">
<title>Node_43</title>
<ellipse fill="none" stroke="black" cx="162" cy="-1565" rx="27" ry="18"/>
<text text-anchor="middle" x="162" y="-1561.3" font-family="Times,serif" font-size="14.00">5</text>
</g>
<!-- Node_42&#45;&gt;Node_43 -->
<g id="edge47" class="edge">
<title>Node_42&#45;&gt;Node_43</title>
<path fill="none" stroke="black" d="M162,-1619.81C162,-1611.79 162,-1602.05 162,-1593.07"/>
<polygon fill="black" stroke="black" points="165.5,-1593.03 162,-1583.03 158.5,-1593.03 165.5,-1593.03"/>
</g>
<!-- Node_44 -->
<g id="node47" class="node">
<title>Node_44</title>
<ellipse fill="none" stroke="black" cx="162" cy="-1492" rx="27" ry="18"/>
<text text-anchor="middle" x="162" y="-1488.3" font-family="Times,serif" font-size="14.00">/%</text>
</g>
<!-- Node_43&#45;&gt;Node_44 -->
<g id="edge48" class="edge">
<title>Node_43&#45;&gt;Node_44</title>
<path fill="none" stroke="black" d="M162,-1546.81C162,-1538.79 162,-1529.05 162,-1520.07"/>
<polygon fill="black" stroke="black" points="165.5,-1520.03 162,-1510.03 158.5,-1520.03 165.5,-1520.03"/>
</g>
<!-- Node_45 -->
<g id="node48" class="node">
<title>Node_45</title>
<ellipse fill="none" stroke="black" cx="162" cy="-1419" rx="34.39" ry="18"/>
<text text-anchor="middle" x="162" y="-1415.3" font-family="Times,serif" font-size="14.00">swap</text>
</g>
<!-- Node_44&#45;&gt;Node_45 -->
<g id="edge49" class="edge">
<title>Node_44&#45;&gt;Node_45</title>
<path fill="none" stroke="black" d="M162,-1473.81C162,-1465.79 162,-1456.05 162,-1447.07"/>
<polygon fill="black" stroke="black" points="165.5,-1447.03 162,-1437.03 158.5,-1447.03 165.5,-1447.03"/>
</g>
<!-- Node_46 -->
<g id="node49" class="node">
<title>Node_46</title>
<ellipse fill="none" stroke="black" cx="162" cy="-1346" rx="32.49" ry="18"/>
<text text-anchor="middle" x="162" y="-1342.3" font-family="Times,serif" font-size="14.00">drop</text>
</g>
<!-- Node_45&#45;&gt;Node_46 -->
<g id="edge50" class="edge">
<title>Node_45&#45;&gt;Node_46</title>
<path fill="none" stroke="black" d="M162,-1400.81C162,-1392.79 162,-1383.05 162,-1374.07"/>
<polygon fill="black" stroke="black" points="165.5,-1374.03 162,-1364.03 158.5,-1374.03 165.5,-1374.03"/>
</g>
<!-- Node_47 -->
<g id="node50" class="node">
<title>Node_47</title>
<ellipse fill="none" stroke="black" cx="162" cy="-1273" rx="27" ry="18"/>
<text text-anchor="middle" x="162" y="-1269.3" font-family="Times,serif" font-size="14.00">0</text>
</g>
<!-- Node_46&#45;&gt;Node_47 -->
<g id="edge51" class="edge">
<title>Node_46&#45;&gt;Node_47</title>
<path fill="none" stroke="black" d="M162,-1327.81C162,-1319.79 162,-1310.05 162,-1301.07"/>
<polygon fill="black" stroke="black" points="165.5,-1301.03 162,-1291.03 158.5,-1301.03 165.5,-1301.03"/>
</g>
<!-- Node_48 -->
<g id="node51" class="node">
<title>Node_48</title>
<ellipse fill="none" stroke="black" cx="162" cy="-1200" rx="27" ry="18"/>
<text text-anchor="middle" x="162" y="-1196.3" font-family="Times,serif" font-size="14.00">=</text>
</g>
<!-- Node_47&#45;&gt;Node_48 -->
<g id="edge52" class="edge">
<title>Node_47&#45;&gt;Node_48</title>
<path fill="none" stroke="black" d="M162,-1254.81C162,-1246.79 162,-1237.05 162,-1228.07"/>
<polygon fill="black" stroke="black" points="165.5,-1228.03 162,-1218.03 158.5,-1228.03 165.5,-1228.03"/>
</g>
<!-- Node_49 -->
<g id="node52" class="node">
<title>Node_49</title>
<ellipse fill="none" stroke="black" cx="162" cy="-1127" rx="27" ry="18"/>
<text text-anchor="middle" x="162" y="-1123.3" font-family="Times,serif" font-size="14.00">rot</text>
</g>
<!-- Node_48&#45;&gt;Node_49 -->
<g id="edge53" class="edge">
<title>Node_48&#45;&gt;Node_49</title>
<path fill="none" stroke="black" d="M162,-1181.81C162,-1173.79 162,-1164.05 162,-1155.07"/>
<polygon fill="black" stroke="black" points="165.5,-1155.03 162,-1145.03 158.5,-1155.03 165.5,-1155.03"/>
</g>
<!-- Node_50 -->
<g id="node53" class="node">
<title>Node_50</title>
<ellipse fill="none" stroke="black" cx="162" cy="-1054" rx="27" ry="18"/>
<text text-anchor="middle" x="162" y="-1050.3" font-family="Times,serif" font-size="14.00">rot</text>
</g>
<!-- Node_49&#45;&gt;Node_50 -->
<g id="edge54" class="edge">
<title>Node_49&#45;&gt;Node_50</title>
<path fill="none" stroke="black" d="M162,-1108.81C162,-1100.79 162,-1091.05 162,-1082.07"/>
<polygon fill="black" stroke="black" points="165.5,-1082.03 162,-1072.03 158.5,-1082.03 165.5,-1082.03"/>
</g>
<!-- Node_51 -->
<g id="node54" class="node">
<title>Node_51</title>
<ellipse fill="none" stroke="black" cx="162" cy="-981" rx="27" ry="18"/>
<text text-anchor="middle" x="162" y="-977.3" font-family="Times,serif" font-size="14.00">or</text>
</g>
<!-- Node_50&#45;&gt;Node_51 -->
<g id="edge55" class="edge">
<title>Node_50&#45;&gt;Node_51</title>
<path fill="none" stroke="black" d="M162,-1035.81C162,-1027.79 162,-1018.05 162,-1009.07"/>
<polygon fill="black" stroke="black" points="165.5,-1009.03 162,-999.03 158.5,-1009.03 165.5,-1009.03"/>
</g>
<!-- Node_52 -->
<g id="node55" class="node">
<title>Node_52</title>
<ellipse fill="none" stroke="black" cx="162" cy="-908" rx="27" ry="18"/>
<text text-anchor="middle" x="162" y="-904.3" font-family="Times,serif" font-size="14.00">if</text>
</g>
<!-- Node_51&#45;&gt;Node_52 -->
<g id="edge56" class="edge">
<title>Node_51&#45;&gt;Node_52</title>
<path fill="none" stroke="black" d="M162,-962.81C162,-954.79 162,-945.05 162,-936.07"/>
<polygon fill="black" stroke="black" points="165.5,-936.03 162,-926.03 158.5,-936.03 165.5,-936.03"/>
</g>
<!-- Node_53 -->
<g id="node56" class="node">
<title>Node_53</title>
<ellipse fill="none" stroke="black" cx="172" cy="-821" rx="27" ry="18"/>
</g>
<!-- Node_52&#45;&gt;Node_53 -->
<g id="edge57" class="edge">
<title>Node_52&#45;&gt;Node_53</title>
<path fill="none" stroke="black" d="M164.02,-889.8C165.39,-878.16 167.23,-862.55 168.8,-849.24"/>
<polygon fill="black" stroke="black" points="172.29,-849.52 169.98,-839.18 165.33,-848.7 172.29,-849.52"/>
<text text-anchor="middle" x="182.5" y="-860.8" font-family="Times,serif" font-size="14.00">true</text>
</g>
<!-- Node_58 -->
<g id="node57" class="node">
<title>Node_58</title>
<ellipse fill="none" stroke="black" cx="143" cy="-456" rx="29.5" ry="18"/>
<text text-anchor="middle" x="143" y="-452.3" font-family="Times,serif" font-size="14.00">else</text>
</g>
<!-- Node_52&#45;&gt;Node_58 -->
<g id="edge58" class="edge">
<title>Node_52&#45;&gt;Node_58</title>
<path fill="none" stroke="black" stroke-dasharray="5,2" d="M147.6,-892.43C133.46,-876.53 114,-849.62 114,-822 114,-822 114,-822 114,-528 114,-511.82 120.53,-495.01 127.4,-481.8"/>
<polygon fill="black" stroke="black" points="130.56,-483.33 132.37,-472.89 124.44,-479.92 130.56,-483.33"/>
<text text-anchor="middle" x="131" y="-671.3" font-family="Times,serif" font-size="14.00">false</text>
</g>
<!-- Node_54 -->
<g id="node58" class="node">
<title>Node_54</title>
<ellipse fill="none" stroke="black" cx="180" cy="-748" rx="27" ry="18"/>
<text text-anchor="middle" x="180" y="-744.3" font-family="Times,serif" font-size="14.00">1</text>
</g>
<!-- Node_53&#45;&gt;Node_54 -->
<g id="edge59" class="edge">
<title>Node_53&#45;&gt;Node_54</title>
<path fill="none" stroke="black" d="M173.94,-802.81C174.84,-794.79 175.94,-785.05 176.95,-776.07"/>
<polygon fill="black" stroke="black" points="180.44,-776.36 178.08,-766.03 173.48,-775.57 180.44,-776.36"/>
</g>
<!-- Node_61 -->
<g id="node62" class="node">
<title>Node_61</title>
<ellipse fill="none" stroke="black" cx="101" cy="-383" rx="27.9" ry="18"/>
<text text-anchor="middle" x="101" y="-379.3" font-family="Times,serif" font-size="14.00">end</text>
</g>
<!-- Node_58&#45;&gt;Node_61 -->
<g id="edge64" class="edge">
<title>Node_58&#45;&gt;Node_61</title>
<path fill="none" stroke="black" d="M133.47,-438.89C128.21,-429.99 121.56,-418.75 115.65,-408.77"/>
<polygon fill="black" stroke="black" points="118.6,-406.87 110.49,-400.05 112.57,-410.44 118.6,-406.87"/>
</g>
<!-- Node_55 -->
<g id="node59" class="node">
<title>Node_55</title>
<ellipse fill="none" stroke="black" cx="193" cy="-675" rx="27" ry="18"/>
<text text-anchor="middle" x="193" y="-671.3" font-family="Times,serif" font-size="14.00">1</text>
</g>
<!-- Node_54&#45;&gt;Node_55 -->
<g id="edge60" class="edge">
<title>Node_54&#45;&gt;Node_55</title>
<path fill="none" stroke="black" d="M183.15,-729.81C184.62,-721.79 186.4,-712.05 188.04,-703.07"/>
<polygon fill="black" stroke="black" points="191.52,-703.5 189.88,-693.03 184.64,-702.23 191.52,-703.5"/>
</g>
<!-- Node_56 -->
<g id="node60" class="node">
<title>Node_56</title>
<ellipse fill="none" stroke="black" cx="190" cy="-602" rx="48.19" ry="18"/>
<text text-anchor="middle" x="190" y="-598.3" font-family="Times,serif" font-size="14.00">syscall3</text>
</g>
<!-- Node_55&#45;&gt;Node_56 -->
<g id="edge61" class="edge">
<title>Node_55&#45;&gt;Node_56</title>
<path fill="none" stroke="black" d="M192.27,-656.81C191.93,-648.79 191.52,-639.05 191.14,-630.07"/>
<polygon fill="black" stroke="black" points="194.64,-629.87 190.72,-620.03 187.64,-630.17 194.64,-629.87"/>
</g>
<!-- Node_57 -->
<g id="node61" class="node">
<title>Node_57</title>
<ellipse fill="none" stroke="black" cx="178" cy="-529" rx="32.49" ry="18"/>
<text text-anchor="middle" x="178" y="-525.3" font-family="Times,serif" font-size="14.00">drop</text>
</g>
<!-- Node_56&#45;&gt;Node_57 -->
<g id="edge62" class="edge">
<title>Node_56&#45;&gt;Node_57</title>
<path fill="none" stroke="black" d="M187.1,-583.81C185.74,-575.79 184.09,-566.05 182.58,-557.07"/>
<polygon fill="black" stroke="black" points="186,-556.31 180.88,-547.03 179.09,-557.47 186,-556.31"/>
</g>
<!-- Node_57&#45;&gt;Node_58 -->
<g id="edge63" class="edge">
<title>Node_57&#45;&gt;Node_58</title>
<path fill="none" stroke="black" d="M169.88,-511.53C165.64,-502.93 160.36,-492.21 155.6,-482.56"/>
<polygon fill="black" stroke="black" points="158.63,-480.8 151.07,-473.38 152.36,-483.89 158.63,-480.8"/>
</g>
<!-- Node_62 -->
<g id="node65" class="node">
<title>Node_62</title>
<ellipse fill="none" stroke="black" cx="101" cy="-310" rx="27" ry="18"/>
<text text-anchor="middle" x="101" y="-306.3" font-family="Times,serif" font-size="14.00">1</text>
</g>
<!-- Node_61&#45;&gt;Node_62 -->
<g id="edge67" class="edge">
<title>Node_61&#45;&gt;Node_62</title>
<path fill="none" stroke="black" d="M101,-364.81C101,-356.79 101,-347.05 101,-338.07"/>
<polygon fill="black" stroke="black" points="104.5,-338.03 101,-328.03 97.5,-338.03 104.5,-338.03"/>
</g>
<!-- Node_59 -->
<g id="node63" class="node">
<title>Node_59</title>
<ellipse fill="none" stroke="black" cx="57" cy="-529" rx="28.7" ry="18"/>
<text text-anchor="middle" x="57" y="-525.3" font-family="Times,serif" font-size="14.00">dup</text>
</g>
<!-- Node_60 -->
<g id="node64" class="node">
<title>Node_60</title>
<ellipse fill="none" stroke="black" cx="62" cy="-456" rx="33.6" ry="18"/>
<text text-anchor="middle" x="62" y="-452.3" font-family="Times,serif" font-size="14.00">print</text>
</g>
<!-- Node_59&#45;&gt;Node_60 -->
<g id="edge65" class="edge">
<title>Node_59&#45;&gt;Node_60</title>
<path fill="none" stroke="black" d="M58.21,-510.81C58.78,-502.79 59.46,-493.05 60.09,-484.07"/>
<polygon fill="black" stroke="black" points="63.59,-484.25 60.8,-474.03 56.61,-483.76 63.59,-484.25"/>
</g>
<!-- Node_60&#45;&gt;Node_61 -->
<g id="edge66" class="edge">
<title>Node_60&#45;&gt;Node_61</title>
<path fill="none" stroke="black" d="M71.05,-438.53C75.82,-429.84 81.78,-418.99 87.13,-409.26"/>
<polygon fill="black" stroke="black" points="90.26,-410.83 92,-400.38 84.12,-407.46 90.26,-410.83"/>
</g>
<!-- Node_63 -->
<g id="node66" class="node">
<title>Node_63</title>
<ellipse fill="none" stroke="black" cx="101" cy="-237" rx="27" ry="18"/>
<text text-anchor="middle" x="101" y="-233.3" font-family="Times,serif" font-size="14.00">+</text>
</g>
<!-- Node_62&#45;&gt;Node_63 -->
<g id="edge68" class="edge">
<title>Node_62&#45;&gt;Node_63</title>
<path fill="none" stroke="black" d="M101,-291.81C101,-283.79 101,-274.05 101,-265.07"/>
<polygon fill="black" stroke="black" points="104.5,-265.03 101,-255.03 97.5,-265.03 104.5,-265.03"/>
</g>
<!-- Node_63&#45;&gt;Node_64 -->
<g id="edge69" class="edge">
<title>Node_63&#45;&gt;Node_64</title>
<path fill="none" stroke="black" d="M101,-218.81C101,-210.79 101,-201.05 101,-192.07"/>
<polygon fill="black" stroke="black" points="104.5,-192.03 101,-182.03 97.5,-192.03 104.5,-192.03"/>
</g>
<!-- Node_66 -->
<g id="node68" class="node">
<title>Node_66</title>
<ellipse fill="none" stroke="black" cx="101" cy="-18" rx="29.5" ry="18"/>
<text text-anchor="middle" x="101" y="-14.3" font-family="Times,serif" font-size="14.00">End</text>
</g>
<!-- Node_65&#45;&gt;Node_66 -->
<g id="edge72" class="edge">
<title>Node_65&#45;&gt;Node_66</title>
<path fill="none" stroke="black" d="M101,-72.81C101,-64.79 101,-55.05 101,-46.07"/>
<polygon fill="black" stroke="black" points="104.5,-46.03 101,-36.03 97.5,-46.03 104.5,-46.03"/>
</g>
</g>
</svg>
